<?xml version="1.0" encoding="UTF-8" standalone="no"?>
<svg
   xmlns:dc="http://purl.org/dc/elements/1.1/"
   xmlns:cc="http://creativecommons.org/ns#"
   xmlns:rdf="http://www.w3.org/1999/02/22-rdf-syntax-ns#"
   xmlns:svg="http://www.w3.org/2000/svg"
   xmlns="http://www.w3.org/2000/svg"
   xmlns:sodipodi="http://sodipodi.sourceforge.net/DTD/sodipodi-0.dtd"
   xmlns:inkscape="http://www.inkscape.org/namespaces/inkscape"
   version="1.1"
   inkscape:version="1.0 (4035a4fb49, 2020-05-01)"
   inkscape:output_extension="org.inkscape.output.svg.inkscape"
   sodipodi:version="0.32"
   viewBox="0 0 48 48"
   sodipodi:docname="safari-pinned-tab.svg"
   id="svg53383">
  <defs
     id="defs3">
    <radialGradient
       inkscape:collect="always"
       gradientTransform="matrix(1.3993 -2.2344e-7 8.1962e-8 .51326 4.3651 4.8393)"
       r="11.69"
       cy="68.873"
       gradientUnits="userSpaceOnUse"
       cx="14.288"
       fy="72.568"
       id="radialGradient2308">
      <stop
         offset="0"
         style="stop-color:#000000;stop-opacity:.32673"
         id="stop2302" />
      <stop
         offset="1"
         style="stop-color:#000000;stop-opacity:0"
         id="stop2304" />
    </radialGradient>
  </defs>
  <sodipodi:namedview
     inkscape:guide-bbox="true"
     showguides="true"
     showborder="false"
     inkscape:document-rotation="0"
     inkscape:document-units="px"
     inkscape:pageopacity="0.0"
     inkscape:window-width="872"
     inkscape:cy="23.92387"
     inkscape:cx="29.450892"
     inkscape:current-layer="layer1"
     borderopacity="0.11764706"
     showgrid="false"
     inkscape:window-height="697"
     inkscape:window-x="562"
     inkscape:zoom="7.9999999"
     inkscape:grid-bbox="true"
     inkscape:showpageshadow="false"
     pagecolor="#ffffff"
     inkscape:window-y="151"
     inkscape:pageshadow="2"
     bordercolor="#666666"
     id="base" />
  <g
     inkscape:groupmode="layer"
     inkscape:label="shadow"
     id="layer2">
    <path
       sodipodi:cx="24.357143"
       sodipodi:cy="38.714287"
       transform="matrix(1.1864 0 0 1.1864 -4.5397 -7.7947)"
       d="m44.286 38.714a19.929 9.8372 0 1 1 -39.857 0 19.929 9.8372 0 1 1 39.857 0z"
       sodipodi:type="arc"
       style="fill-rule:evenodd;color:#000000;fill:url(#radialGradient2308)"
       sodipodi:ry="9.8372450"
       sodipodi:rx="19.928572"
       id="path1538" />
  </g>
  <g
     inkscape:groupmode="layer"
     inkscape:label="Layer 1"
     id="layer1">
    <path
       d="M 22.7,0.94747 C 22.226,0.97985 21.766,1.0531 21.302,1.1063 H 21.27 l -1.112,6.068 c -1.812,0.4127 -3.517,1.1132 -5.051,2.065 l -4.988,-3.59 C 8.7705,6.6961 7.5436,7.917 6.4654,9.2393 l 3.4628,5.0517 c -1.0514,1.606 -1.842,3.441 -2.2874,5.369 v 0.031 l -6.0361,0.953 c -0.1104,0.902 -0.1589,1.833 -0.1589,2.764 0,0.762 0.021,1.514 0.0953,2.256 l 6.0362,1.08 C 8.0066,28.84 8.8221,30.798 9.96,32.526 L 6.3701,37.45 c 1.0281,1.277 2.2151,2.439 3.4946,3.463 l 5.0833,-3.494 c 1.776,1.133 3.759,1.928 5.909,2.319 l 0.953,6.004 c 0.677,0.062 1.372,0.064 2.065,0.064 0.979,0 1.914,-0.037 2.859,-0.159 l 1.144,-6.132 c 2.041,-0.507 3.958,-1.389 5.623,-2.573 l 4.893,3.558 c 1.268,-1.079 2.429,-2.32 3.431,-3.653 L 38.267,31.7 c 0.963,-1.664 1.631,-3.5 1.969,-5.464 l 6.005,-0.953 c 0.052,-0.627 0.063,-1.234 0.063,-1.875 0,-1.112 -0.129,-2.203 -0.286,-3.272 l -6.099,-1.112 c -0.478,-1.765 -1.263,-3.412 -2.256,-4.892 l 3.59,-4.9245 C 40.14,7.8467 38.871,6.5895 37.472,5.5223 L 32.294,9.0804 C 30.806,8.2002 29.204,7.5248 27.465,7.1425 L 26.512,1.1063 C 25.644,1.0043 24.77,0.94747 23.875,0.94747 c -0.242,0 -0.491,-0.00761 -0.731,0 -0.117,0.00371 -0.232,-0.00681 -0.349,0 -0.032,0.00184 -0.064,-0.00216 -0.095,0 z m 0.826,15.44 c 0.116,-0.006 0.231,0 0.349,0 3.761,0 6.83,3.07 6.83,6.831 0,3.76 -3.069,6.798 -6.83,6.798 -3.761,0 -6.799,-3.038 -6.799,-6.798 0,-3.643 2.852,-6.648 6.45,-6.831 z"
       inkscape:r_cx="true"
       inkscape:r_cy="true"
       style="color:#000000;fill:#008000;stroke:#3f4561;stroke-linecap:round;stroke-linejoin:round"
       id="path3243" />
    <path
       d="m36.239 23.782a12.728 12.728 0 1 1 -25.456 0 12.728 12.728 0 1 1 25.456 0z"
       inkscape:r_cy="true"
       sodipodi:cx="23.511301"
       sodipodi:cy="23.781593"
       transform="matrix(.61660 0 0 .61660 9.382 8.5397)"
       inkscape:r_cx="true"
       sodipodi:type="arc"
       style="opacity:.64773;color:#000000;stroke:#ffffff;stroke-width:1.6218;fill:none"
       sodipodi:ry="12.727922"
       sodipodi:rx="12.727922"
       id="path3283" />
    <path
       inkscape:r_cx="true"
       sodipodi:nodetypes="ccccccccccccccccccccccccccccccccc"
       d="M 22.137,1.487 21.244,7.362 C 19.545,7.7489 16.42,8.9321 14.983,9.8245 L 10.233,6.2791 C 8.9691,7.2603 8.8825,7.3269 7.8719,8.5663 l 3.4341,5.0932 c -0.985,1.506 -2.1692,4.19 -2.5942,6.108 l -6.0178,1.014 c -0.1035,0.845 -0.0537,2.654 0.0159,3.349 l 5.7482,1.036 c 0.4024,1.965 1.9079,5.127 2.9749,6.747 l -3.6351,4.803 c 0.9637,1.196 1.1566,1.306 2.3561,2.266 l 4.86,-3.561 c 1.666,1.062 4.971,2.354 6.986,2.721 l 0.797,5.801 c 0.635,0.058 2.389,0.22 3.275,0.106 l 0.893,-6.039 c 1.913,-0.476 5.219,-1.833 6.779,-2.943 l 4.856,3.508 c 1.189,-1.012 1.2,-1.164 2.139,-2.414 l -3.598,-5.114 c 0.903,-1.56 2.071,-4.611 2.388,-6.452 l 5.891,-0.977 c 0.049,-0.588 0.052,-2.225 -0.095,-3.228 l -6.002,-1.035 c -0.448,-1.655 -1.986,-4.636 -2.917,-6.024 L 40.221,8.5293 C 39.178,7.2537 38.79,7.0787 37.479,6.0783 L 32.455,9.6765 C 31.06,8.8513 28.278,7.5935 26.648,7.2352 L 25.761,1.487 c -0.814,-0.0957 -3.16,-0.0532 -3.624,0 z"
       inkscape:r_cy="true"
       style="color:#000000;opacity:0.34659;fill:#008000;stroke:#ffffff"
       id="path3285" />
    <rect
       y="21.655146"
       x="24.395184"
       height="2.9168155"
       width="2.5632622"
       id="rect932"
       style="fill:#008000;fill-opacity:1;stroke:#008000;stroke-width:20;stroke-linecap:round;stroke-linejoin:round" />
    <path
       d="m10.103 6.2971c-1.3484 1.0468-1.9374 1.6748-3.0155 2.9971l3.4025 4.9648c-1.0515 1.599-2.1584 4.167-2.3476 5.729l-6.0625 1.044c-0.069 0.563-0.1737 1.853-0.1737 1.853l0.1768 1.562c0.4278 0.089 0.8402 0.171 1.2813 0.219l0.5-1.531c0.344 0.028 0.6796 0.062 1.0312 0.062 0.3512 0 0.7185-0.034 1.0625-0.062l0.4688 1.531c0.4413-0.048 0.8847-0.13 1.3125-0.219v-1.562c0.6857-0.16 1.332-0.388 1.9687-0.656l0.938 1.281c0.402-0.182 0.775-0.376 1.156-0.594l-0.5-1.5c0.597-0.362 1.162-0.795 1.687-1.25l1.282 0.938c0.325-0.297 0.641-0.612 0.937-0.938l-0.937-1.25c0.454-0.526 0.856-1.09 1.218-1.687l1.5 0.468c0.218-0.381 0.444-0.754 0.625-1.156l-1.281-0.937c0.269-0.637 0.465-1.283 0.625-1.969h1.594c0.088-0.428 0.139-0.871 0.187-1.313l-1.5-0.468c0.029-0.344 0.063-0.712 0.063-1.063s-0.034-0.687-0.063-1.0312l1.5-0.4687c-0.045-0.4199-0.105-0.842-0.187-1.25-1.148 0.3993-2.553 1.1531-3.569 1.7834l-4.88-3.5274z"
       sodipodi:nodetypes="cccccccccsccccccccccccccccccccsccccc"
       inkscape:r_cx="true"
       inkscape:r_cy="true"
       style="opacity:0.5;color:#000000;fill:#002000;fill-opacity:1"
       id="path3767" />
    <path
       sodipodi:nodetypes="cccccccccccscccccsccccccscccccc"
       d="m 37.666,16.1705 c -0.384,0.181 -0.747,0.386 -1.114,0.595 l 0.57,1.735 c -0.697,0.422 -1.355,0.92 -1.968,1.45 l -1.476,-1.087 c -0.38,0.346 -0.742,0.707 -1.087,1.087 l 1.087,1.476 c -0.53,0.613 -1.027,1.271 -1.45,1.968 v 0 0 L 30.651282,22.25 c -0.716356,1.502248 -1.184918,1.608207 0.649543,2.671694 0.785545,0.455402 -0.706371,2.343271 -0.781825,2.667806 h -1.476 c -0.136,0.085 -0.27,0.185 -0.414,0.259 -0.078,0.415 -0.135,0.817 -0.181,1.242 l 1.76,0.57 c -0.033,0.401 -0.051,0.807 -0.051,1.217 0,0.41 0.018,0.816 0.051,1.217 l -1.76,0.57 c 0.056,0.514 0.13,1.028 0.233,1.527 l 1.838,-0.026 c 0.128,0.55 0.303,1.108 0.492,1.632 0.745,-0.288 1.474,-0.63 2.149,-1.036 -0.411,-1.216 -0.647,-2.529 -0.647,-3.884 0,-5.198 3.292,-9.637 7.897,-11.341 l -1.087,-0.181 c -0.223,-0.823 -0.512,-1.629 -0.881,-2.383 -0.01,-0.022 -0.014,-0.055 -0.025,-0.077 l -0.052,-0.052 z"
       inkscape:r_cy="true"
       inkscape:r_cx="true"
       style="color:#000000;opacity:0.5;fill:#002000;fill-opacity:1"
       id="path3770" />
    <text
       id="text883"
       y="33.140682"
       x="15.526029"
       style="font-style:normal;font-variant:normal;font-weight:normal;font-stretch:normal;font-size:50.7398px;line-height:1.25;font-family:'Bodoni MT';-inkscape-font-specification:'Bodoni MT, Normal';font-variant-ligatures:normal;font-variant-caps:normal;font-variant-numeric:normal;font-variant-east-asian:normal;letter-spacing:0px;word-spacing:0px;stroke-width:0.422832"
       xml:space="preserve"><tspan
         style="font-style:normal;font-variant:normal;font-weight:normal;font-stretch:normal;font-size:32px;font-family:'AR JULIAN';-inkscape-font-specification:'AR JULIAN, Normal';font-variant-ligatures:normal;font-variant-caps:normal;font-variant-numeric:normal;font-variant-east-asian:normal;fill:#ffffff;fill-opacity:1;stroke-width:0.422832"
         y="33.140682"
         x="15.526029"
         id="tspan881"
         sodipodi:role="line">L</tspan></text>
  </g>
  <metadata
     id="metadata42">
    <rdf:RDF>
      <cc:Work>
        <dc:format>image/svg+xml</dc:format>
        <dc:type
           rdf:resource="http://purl.org/dc/dcmitype/StillImage" />
        <cc:license
           rdf:resource="http://creativecommons.org/publicdomain/zero/1.0/" />
        <dc:publisher>
          <cc:Agent
             rdf:about="http://openclipart.org/">
            <dc:title>Openclipart</dc:title>
          </cc:Agent>
        </dc:publisher>
        <dc:title></dc:title>
        <dc:date>2010-03-29T09:05:06</dc:date>
        <dc:description>&quot;System applications&quot; icon from &lt;a href=&quot;http://tango.freedesktop.org/Tango_Desktop_Project&quot;&gt; Tango Project &lt;/a&gt; \n&lt;br&gt;&lt;br&gt;\nSince version 0.8.90 Tango Project icons are Public Domain: &lt;a href=&quot;http://tango.freedesktop.org/Frequently_Asked_Questions#Terms_of_Use.3F&quot;&gt; Tango Project FAQ &lt;/a&gt;</dc:description>
        <dc:source>https://openclipart.org/detail/35413/tango-applications-system-by-warszawianka</dc:source>
        <dc:creator>
          <cc:Agent>
            <dc:title>warszawianka</dc:title>
          </cc:Agent>
        </dc:creator>
        <dc:subject>
          <rdf:Bag>
            <rdf:li>externalsource</rdf:li>
            <rdf:li>gear</rdf:li>
            <rdf:li>icon</rdf:li>
            <rdf:li>metal</rdf:li>
            <rdf:li>tango</rdf:li>
          </rdf:Bag>
        </dc:subject>
      </cc:Work>
      <cc:License
         rdf:about="http://creativecommons.org/publicdomain/zero/1.0/">
        <cc:permits
           rdf:resource="http://creativecommons.org/ns#Reproduction" />
        <cc:permits
           rdf:resource="http://creativecommons.org/ns#Distribution" />
        <cc:permits
           rdf:resource="http://creativecommons.org/ns#DerivativeWorks" />
      </cc:License>
    </rdf:RDF>
  </metadata>
</svg>
