<?xml version="1.0" encoding="UTF-8" standalone="no"?>
<svg
   xmlns:dc="http://purl.org/dc/elements/1.1/"
   xmlns:cc="http://creativecommons.org/ns#"
   xmlns:rdf="http://www.w3.org/1999/02/22-rdf-syntax-ns#"
   xmlns:svg="http://www.w3.org/2000/svg"
   xmlns="http://www.w3.org/2000/svg"
   xmlns:sodipodi="http://sodipodi.sourceforge.net/DTD/sodipodi-0.dtd"
   xmlns:inkscape="http://www.inkscape.org/namespaces/inkscape"
   id="svg27183"
   sodipodi:docname="safari-pinned-tab.svg"
   viewBox="0 0 410 410"
   version="1.1"
   inkscape:version="1.0 (4035a4fb49, 2020-05-01)">
  <defs
     id="defs89">
    <rect
       x="78.791897"
       y="36.365491"
       width="278.8021"
       height="322.23865"
       id="rect109" />
    <rect
       x="136.37059"
       y="119.198"
       width="171.72593"
       height="181.82745"
       id="rect102" />
  </defs>
  <sodipodi:namedview
     inkscape:snap-text-baseline="false"
     id="base"
     bordercolor="#666666"
     inkscape:pageshadow="2"
     inkscape:window-y="-6"
     pagecolor="#ffffff"
     inkscape:window-height="938"
     inkscape:window-maximized="1"
     inkscape:zoom="0.98994952"
     inkscape:window-x="-6"
     showgrid="false"
     borderopacity="1.0"
     inkscape:current-layer="layer1"
     inkscape:cx="161.64498"
     inkscape:cy="217.60605"
     inkscape:window-width="1500"
     inkscape:pageopacity="0.0"
     inkscape:document-units="px"
     inkscape:document-rotation="0" />
  <g
     id="layer1"
     inkscape:label="Layer 1"
     inkscape:groupmode="layer"
     transform="translate(0 -642.36)">
    <path
       transform="translate(0,642.36)"
       d="M 250.37695 4.1738281 C 249.72818 4.1327121 249.32377 4.1888438 249.21289 4.3554688 C 248.98289 4.7012587 244.55118 11.809844 239.36328 20.152344 C 233.23108 30.013244 229.65056 35.214625 229.13086 35.015625 C 228.69126 34.846895 223.18714 34.364459 216.89844 33.943359 C 207.71764 33.328559 203.26741 33.329435 194.31641 33.953125 C 188.18511 34.380425 182.46833 34.869906 181.61133 35.041016 C 180.15263 35.332356 179.44995 34.379684 170.62695 20.121094 C 165.44315 11.744094 161.00553 4.6646719 160.76562 4.3886719 C 159.78293 3.2574719 139.96359 9.0772813 127.43359 14.175781 C 114.09859 19.601781 95.178063 29.824328 95.164062 31.611328 C 95.154062 32.139968 96.949878 40.104547 99.142578 49.310547 C 101.33518 58.516147 103.12891 66.388687 103.12891 66.804688 C 103.12891 67.220217 100.85146 69.317597 98.068359 71.466797 C 91.558959 76.493797 77.519187 90.535922 72.492188 97.044922 C 70.342888 99.827922 68.145075 102.09895 67.609375 102.09375 C 67.073675 102.08775 58.907791 100.31088 49.462891 98.142578 L 32.291016 94.201172 L 31.248047 95.544922 C 29.397247 97.934822 22.306766 110.8165 19.197266 117.4375 C 14.963166 126.4531 10.427741 138.92991 7.4941406 149.62891 C 6.1210406 154.63691 4.9960938 158.91953 4.9960938 159.14453 C 4.9960938 159.36951 12.054487 163.94545 20.679688 169.31445 L 36.361328 179.07812 L 35.992188 182.75781 C 34.349387 199.18181 34.4129 212.86781 36.1875 225.50781 L 36.677734 229.00586 L 24.058594 236.82422 C 17.117594 241.12362 10.007766 245.54715 8.2597656 246.65625 L 5.0820312 248.67383 L 7.1484375 256.50195 C 9.9303375 267.04295 14.236616 279.25195 18.478516 288.62695 C 22.065816 296.55615 29.484734 310.12563 31.677734 312.76562 L 32.904297 314.24219 L 50.691406 310.01172 L 68.478516 305.7793 L 70.011719 307.72852 C 78.339319 318.31652 89.1125 329.27925 98.6875 336.90625 C 101.991 339.53795 103.65592 341.26772 103.48242 341.88672 C 102.65442 344.84102 95.771484 375.74191 95.771484 376.50391 C 95.771484 378.32221 116.00558 389.14375 128.89258 394.21875 C 138.88908 398.15515 156.87923 403.7079 159.86523 403.7793 C 160.81583 403.8023 163.29355 400.28081 170.87305 388.12891 L 170.86914 388.12891 L 180.65039 372.44922 L 183.44336 372.85938 C 190.15366 373.84298 197.81936 374.39108 204.94336 374.39648 C 211.88916 374.39648 214.6701 374.20898 226.7168 372.89648 L 230.39648 372.49609 L 239.41406 387.10547 C 244.37396 395.14107 248.80697 402.22661 249.26367 402.84961 C 250.06337 403.94051 250.36296 403.90912 257.41016 402.01562 C 267.36506 399.34092 279.06697 395.21959 288.79297 390.96289 C 299.47697 386.28679 315.34884 377.5852 315.33984 376.4082 C 315.33984 376.1594 313.44838 368.02488 311.14258 358.33008 L 306.95117 340.70312 L 313.14062 335.66211 C 320.86003 329.37451 331.39663 318.83048 337.39062 311.39648 C 339.90283 308.28028 342.34988 305.73047 342.83008 305.73047 C 343.31038 305.73047 351.40737 307.5242 360.82227 309.7168 C 370.23687 311.9095 378.05055 313.70312 378.18555 313.70312 C 378.84175 313.70312 385.21525 302.26194 389.53125 293.33594 C 395.35355 281.29394 399.63886 269.93233 403.00586 257.61133 C 404.93796 250.54313 405.33603 248.3319 404.74023 247.9707 C 404.31503 247.71292 397.20641 243.27663 388.94141 238.11133 C 376.95141 230.61743 373.94269 228.47512 374.05469 227.51172 C 375.93469 211.31272 375.85299 190.31216 373.87109 180.53516 C 373.56169 179.00876 374.32805 178.43634 388.68945 169.49414 C 397.01945 164.30754 404.12738 159.87658 404.48438 159.64648 C 405.84098 158.77153 400.10984 139.21083 394.49414 125.54883 C 390.44944 115.70903 381.50433 98.177547 378.23633 93.685547 C 378.18133 93.609447 370.00973 95.482103 360.07812 97.845703 L 342.02148 102.14258 L 340.18164 99.833984 C 331.22594 88.594984 322.01417 79.298891 311.20117 70.587891 C 308.75557 68.617691 306.75586 66.906956 306.75586 66.785156 C 306.75586 66.663286 308.54959 58.841197 310.74219 49.404297 C 312.93489 39.966997 314.72852 31.843562 314.72852 31.351562 C 314.72852 29.624463 296.64727 19.848094 283.32227 14.371094 C 271.45027 9.4910438 254.91838 4.4616402 250.37695 4.1738281 z M 203.73047 65.402344 C 212.65595 65.438195 222.63086 65.958816 227.63086 66.814453 C 266.22786 73.419653 300.544 95.820875 321.625 128.17188 C 329.3035 139.95488 337.17795 158.49703 340.37695 172.33203 C 347.64305 203.75503 343.67113 237.38948 329.29883 266.14648 C 308.38883 307.98348 267.84383 336.16134 220.29883 341.90234 C 213.16123 342.7641 194.89828 342.58072 187.48828 341.57227 L 187.48242 341.57227 C 140.73142 335.21007 101.20242 306.99664 80.982422 265.55664 C 70.610422 244.30364 66.672594 227.32602 66.683594 203.91602 C 66.694594 180.43902 70.430822 164.22406 80.794922 142.66406 C 87.461522 128.79606 94.734297 118.51269 106.1543 106.80469 C 128.4623 83.935687 158.41266 69.337578 190.09766 65.892578 C 193.39694 65.533804 198.37518 65.380833 203.73047 65.402344 z "
       style="fill:#008000;fill-opacity:1"
       id="path3919" />
    <path
       id="use21"
       style="fill:#008000;fill-opacity:1"
       d="M 336.31982,845.40064 A 131.31982,131.31982 0 0 1 205,976.72047 131.31982,131.31982 0 0 1 73.680185,845.40064 131.31982,131.31982 0 0 1 205,714.08082 131.31982,131.31982 0 0 1 336.31982,845.40064" />
    <text
       id="text115"
       y="923.62329"
       x="146.44135"
       style="font-style:normal;font-variant:normal;font-weight:normal;font-stretch:normal;font-size:240px;line-height:1.25;font-family:'Book Antiqua';-inkscape-font-specification:'Book Antiqua, Normal';font-variant-ligatures:normal;font-variant-caps:normal;font-variant-numeric:normal;font-variant-east-asian:normal;fill:#ffffff;fill-opacity:1;stroke:none;"
       xml:space="preserve"><tspan
         style="font-style:normal;font-variant:normal;font-weight:normal;font-stretch:normal;font-size:266.667px;font-family:'Footlight MT Light';-inkscape-font-specification:'Footlight MT Light, Normal';font-variant-ligatures:normal;font-variant-caps:normal;font-variant-numeric:normal;font-variant-east-asian:normal;fill:#ffffff"
         y="923.62329"
         x="146.44135"
         id="tspan113"
         sodipodi:role="line">L</tspan></text>
  </g>
  <metadata
     id="metadata86">
    <rdf:RDF>
      <cc:Work>
        <dc:format>image/svg+xml</dc:format>
        <dc:type
           rdf:resource="http://purl.org/dc/dcmitype/StillImage" />
        <cc:license
           rdf:resource="http://creativecommons.org/licenses/publicdomain/" />
        <dc:publisher>
          <cc:Agent
             rdf:about="http://openclipart.org/">
            <dc:title>Openclipart</dc:title>
          </cc:Agent>
        </dc:publisher>
        <dc:title></dc:title>
      </cc:Work>
      <cc:License
         rdf:about="http://creativecommons.org/licenses/publicdomain/">
        <cc:permits
           rdf:resource="http://creativecommons.org/ns#Reproduction" />
        <cc:permits
           rdf:resource="http://creativecommons.org/ns#Distribution" />
        <cc:permits
           rdf:resource="http://creativecommons.org/ns#DerivativeWorks" />
      </cc:License>
    </rdf:RDF>
  </metadata>
</svg>
